<?xml version="1.0" encoding="utf-8" ?><svg xmlns="http://www.w3.org/2000/svg" xmlns:xlink="http://www.w3.org/1999/xlink" width="150" height="150" viewBox="0 0 150 150"><path fill="#191C20" transform="scale(0.146484 0.146484)" d="M0 0L1024 0L1024 1024L0 1024L0 0Z"/><path fill="#F1F0EE" transform="scale(0.146484 0.146484)" d="M510.153 107.521C514.606 107.376 518.105 108.221 520.5 112.337C524.317 118.897 527.523 125.87 530.94 132.658C537.036 144.771 543.226 156.836 549.508 168.854L626.748 320.495L756.54 575.108L781.219 622.452C796.274 652.064 811.133 681.776 825.795 711.585C830.773 721.819 830.912 732.583 817.103 733.037C802.389 733.52 784.406 733.237 769.806 732.376C764.018 732.034 754.203 710.835 751.347 705.449C744.571 692.614 737.902 679.723 731.339 666.777C716.111 637.457 701.106 608.021 686.325 578.473C647.428 501.79 608.139 425.305 568.462 349.022L529.074 272.118C523.262 260.772 517.492 248.389 511.342 237.332C501.494 256.483 492.309 276.471 482.528 295.783L364.404 527.207C341.249 573.766 317.72 620.138 293.822 666.319C329.781 666.047 365.742 666.021 401.702 666.239L528.357 666.061C523.621 658.568 518.941 648.66 514.903 640.649C494.488 640.068 472.037 640.548 451.412 640.53L334.942 640.527L465.752 384.33C481.229 354.548 495.978 324.041 511.437 294.167C517.847 304.044 527.483 324.73 532.978 335.565L569.245 405.906L699.246 660.061C702.897 667.128 732.4 723.735 731.897 726.08C731.277 728.97 729.154 730.387 726.876 732.005C718.566 732.464 706.75 732.047 698.182 732.083C691.49 732.111 678.841 732.565 672.623 732.054C670.522 731.887 668.453 731.444 666.467 730.737C662.864 729.462 661.635 727.833 659.784 724.415C654.611 714.864 649.974 704.913 644.914 695.257L600.87 609.12C571.268 550.597 539.971 491.971 511.896 432.767C506.411 445.386 499.375 458.518 493.138 470.805L469.705 517.072C459.737 536.361 450.183 557.197 439.579 575.846C466.5 576.414 494.436 575.281 521.461 575.805C528.038 575.933 548.755 575.348 554.017 576.684C555.214 577.627 555.991 579.112 556.726 580.432C562.89 591.485 629.94 721.117 629.953 723.825C629.962 725.842 629.051 728.257 627.618 729.69C625.958 731.349 623.736 731.527 621.518 731.612C603.523 732.301 585.192 731.546 567.157 731.555L449.506 731.515L286.864 731.488C258.582 731.491 229.449 731.853 201.229 731.406C187.631 723.691 196.553 713.28 201.845 702.726C207.516 691.441 213.282 680.203 219.143 669.014L273.125 563.872L436.423 243.7C458.522 200.81 480.15 157.63 502.507 114.875C504.518 111.029 506.419 109.529 510.153 107.521Z"/><path fill="#F1F0EE" transform="scale(0.146484 0.146484)" d="M209.44 798.216L628.767 798.474L753.497 799.307L793.354 799.336C800.987 799.327 808.563 799.296 816.192 799.502C822.579 799.674 829.686 805.989 830.344 812.295C831.529 823.636 830.635 835.598 830.723 847.129L830.995 894.706C831.033 910.385 834.852 930.472 814.075 933.339C803.437 933.578 791.545 933.256 780.814 933.243L711.352 933.204L489.75 933.048L301.678 933.082L245.576 933.171C234.162 933.214 222.736 933.331 211.322 933.165C208.132 933.118 204.931 932.319 202.239 930.548C197.99 927.753 194.566 923.392 193.616 918.316C193.067 914.982 193.179 911.42 193.152 908.096C193.123 904.407 193.169 900.751 193.183 897.09L193.322 857.484L193.315 830.339C193.298 826.532 193.06 818.678 193.396 815.13C193.689 811.756 194.864 808.518 196.803 805.742C199.91 801.348 204.193 799.01 209.44 798.216Z"/><path fill="#191C20" transform="scale(0.146484 0.146484)" d="M208.045 805.598C223.197 805.049 241.97 805.542 257.379 805.538L354.171 805.493L655.558 805.626L773.206 805.836C787.447 805.857 802.966 805.508 817.077 806.372C827.265 806.995 824.258 835.406 824.206 842.597L824.062 880.626C824.038 888.306 824.166 895.929 824.201 903.604C824.24 912.213 826.413 920.503 817.85 925.334C813.148 926.707 786.328 926.154 779.849 926.164L691.921 926.121L365.181 926.061L265.272 926.127C247.999 926.149 230.508 926.72 213.262 926.094C210.845 926.006 207.566 925.89 205.396 924.829C203.377 923.842 201.699 921.083 201.024 919.014C199.83 915.355 200.014 825.239 200.68 815.985C200.828 813.935 201.202 811.934 202.154 810.09C203.471 807.541 205.392 806.428 208.045 805.598Z"/><path fill="#F1F0EE" transform="scale(0.146484 0.146484)" d="M417.456 846.479C423.314 846.337 431.123 845.576 436.562 847.474C442.938 849.698 445.284 857.373 442.29 863.181C439.878 867.859 437.115 868.863 432.504 870.36C434.874 874.757 442.062 884.388 441.541 888.513C439.215 890.998 437.755 889.35 436.226 887.433C434.152 883.458 428.492 873.165 425.697 870.302C424.473 869.814 424.478 869.933 423.146 870.16C420.593 873.677 424.826 885.827 420.936 889.295C419.111 889.55 419.912 889.731 418.417 888.921C416.542 885.743 417.48 879.365 417.468 875.44L417.456 846.479Z"/><path fill="#191C20" transform="scale(0.146484 0.146484)" d="M422.365 851.476C429.551 851.304 444.512 851.039 436.989 863.184C432.903 865.881 427.194 865.118 422.367 864.927C422.221 860.548 422.334 855.88 422.365 851.476Z"/><path fill="#F1F0EE" transform="scale(0.146484 0.146484)" d="M608.61 846.163C613.028 846.011 621.756 845.368 625.524 846.869C637.677 851.709 636.901 865.895 625.284 870.957C627.849 874.976 634.386 883.979 633.954 888.317C632.76 889.681 633.508 889.218 631.496 889.509C630.013 888.797 629.393 887.207 628.515 885.698C625.99 880.791 623.316 875.961 620.499 871.216L613.267 871.133C613.106 876.153 613.425 881.152 613.207 886.2C613.076 889.24 610.834 890.188 608.801 888.199C608.314 885.667 608.327 883.388 608.365 880.82C608.534 869.301 608.161 857.669 608.61 846.163Z"/><path fill="#191C20" transform="scale(0.146484 0.146484)" d="M613.494 851.176C622.629 850.89 634.432 852.525 627.395 864.591C622.712 867.363 618.786 866.633 613.312 866.532C613.286 861.339 613.242 856.373 613.494 851.176Z"/><path fill="#F1F0EE" transform="scale(0.146484 0.146484)" d="M672.936 845.122C674.124 845.461 676.186 846.167 676.292 847.714C677.194 860.896 677.301 875.297 676.226 888.363C676.186 888.841 674.876 889.07 674.495 889.186C672.196 888.638 669.5 882.794 667.959 880.758C662.293 873.27 657.055 865.547 652.072 857.591C652.152 863.765 653.607 885.798 650.708 889.92C649.664 889.585 649.301 889.379 648.305 888.906C646.426 886.315 647.763 854.072 647.531 848.554C647.472 847.154 647.982 846.774 648.799 846.044C652.278 846.956 668.74 873.481 671.824 878.099C671.652 872.105 670.846 848.863 672.936 845.122Z"/><path fill="#F1F0EE" transform="scale(0.146484 0.146484)" d="M468.691 845.249C472.578 847.604 482.68 879.734 485.608 885.593C486.102 886.581 485.793 887.131 485.42 887.998C483.761 889.224 484.192 889.316 482.539 889.307C480.128 887.396 478.707 881.558 477.686 878.376L470.75 878.279L460.811 878.299C459.493 882.109 458.736 889.24 454.287 889.717L453.627 888.887C452.196 881.629 462.374 862.997 464.485 855.097C465.05 852.979 467.61 847.138 468.691 845.249Z"/><path fill="#191C20" transform="scale(0.146484 0.146484)" d="M469.182 856.354C470.327 858.44 474.016 869.92 474.684 872.512C473.318 873.19 470.969 873.015 469.328 873.026L463.033 873.019C465.142 867.486 467.192 861.931 469.182 856.354Z"/><path fill="#F1F0EE" transform="scale(0.146484 0.146484)" d="M344.831 845.671C349.004 847.767 358.865 878.66 361.698 884.633C362.418 886.151 362.337 887.187 361.595 888.608C359.854 889.605 360.729 889.485 358.917 889.201C356.175 886.961 355.082 881.84 353.944 878.259L347.75 878.178C344.674 878.189 341.523 878.278 338.44 878.33C337.113 881.921 334.936 889.898 330.448 889.775C328.742 885.447 333.571 875.998 335.278 871.494L344.831 845.671Z"/><path fill="#191C20" transform="scale(0.146484 0.146484)" d="M345.751 857.383C346.833 859.266 350.848 870.452 351.33 872.675C350.109 873.35 347.818 873.188 346.298 873.208L339.962 873.121C341.049 869.266 344.272 861.375 345.751 857.383Z"/><path fill="#F1F0EE" transform="scale(0.146484 0.146484)" d="M579.882 845.247C582.547 846.619 597.402 885.536 596.31 888.352C594.963 889.712 595.722 889.442 594.101 889.526C591.416 887.6 589.831 881.372 588.691 878.012L581.25 878.064L572.605 878.175C571.632 880.943 569.686 887.611 567.603 889.155C565.813 889.177 565.742 888.974 564.206 888.106C563.44 885.862 577.946 849.869 579.882 845.247Z"/><path fill="#191C20" transform="scale(0.146484 0.146484)" d="M580.259 857.398C581.613 858.795 585.627 870.102 586.284 872.531C585.045 873.443 584.287 873.153 582.436 873.27L574.654 873.251C576.429 867.934 578.297 862.649 580.259 857.398Z"/><path fill="#F1F0EE" transform="scale(0.146484 0.146484)" d="M373.999 845.271C380.963 848.551 372.714 873.581 379.095 881.329C380.861 883.474 383.589 884.363 386.29 884.478C389.284 884.605 391.996 883.618 394.097 881.447C398.123 877.286 396.314 859.128 396.448 852.819C396.499 850.395 396.514 847.387 398.356 845.599C400.051 845.5 399.261 845.323 400.781 846.268C401.848 847.936 401.581 849.84 401.571 851.875C401.396 864.779 406.006 887.726 388.31 889.694C384.318 890.142 380.314 888.973 377.19 886.449C369.704 880.324 372.179 869.34 372.007 860.738C371.909 855.814 370.628 849.047 373.999 845.271Z"/><path fill="#F1F0EE" transform="scale(0.146484 0.146484)" d="M532.046 846.011C537.065 845.917 551.132 844.823 554.715 847.362C555.417 849.076 555.266 848.154 554.748 850.264C552.594 851.775 540.757 851.004 536.709 851.356L535.938 851.427C535.692 855.497 535.787 860.484 535.757 864.623C538.701 864.607 550.077 864.092 551.776 865.335C552.702 867.092 552.57 866.199 552.272 868.094C549.015 870.616 541.807 867.916 536.442 869.351C535.622 870.352 535.821 871.441 535.788 872.836L535.775 873.524L535.68 884.505C539.755 884.407 552.082 883.142 554.412 886.402C554.423 888.146 554.615 887.296 553.494 888.94C550.432 890.056 535.184 889.446 530.904 889.371C530.901 883.055 529.748 849.846 532.046 846.011Z"/><path fill="#F1F0EE" transform="scale(0.146484 0.146484)" d="M499.401 844.863C500.11 845.109 500.995 845.334 501.511 845.922C504.058 848.824 502.717 878.577 502.671 884.419C507.18 884.519 515.956 883.288 518.939 885.571C519.659 887.574 519.414 887.002 518.879 889.43C514.373 889.485 501.312 890.197 498.346 888.497C497.71 886.861 497.231 882.918 497.44 881.241C498.242 874.815 495.605 848.967 499.401 844.863Z"/></svg>